<?xml version="1.0" encoding="UTF-8"?>
<!DOCTYPE svg PUBLIC "-//W3C//DTD SVG 1.1//EN" "http://www.w3.org/Graphics/SVG/1.1/DTD/svg11.dtd">
<svg xmlns="http://www.w3.org/2000/svg" version="1.1" width="22px" height="22px" viewBox="-120 -120 1046 1046" style="shape-rendering:geometricPrecision; text-rendering:geometricPrecision; image-rendering:optimizeQuality; fill-rule:evenodd; clip-rule:evenodd" xmlns:xlink="http://www.w3.org/1999/xlink">
<g><path style="opacity:1" fill="#f9f9f9" d="M 401.5,1.5 C 444.772,25.8046 487.772,50.6379 530.5,76C 538.883,75.3256 547.216,73.9923 555.5,72C 583.234,64.8199 611.234,58.9866 639.5,54.5C 664.237,56.0697 678.737,69.0697 683,93.5C 683.333,116.833 683.667,140.167 684,163.5C 706,176.833 728,190.167 750,203.5C 750.667,336.5 750.667,469.5 750,602.5C 658.413,656.379 566.579,709.879 474.5,763C 450.528,776.901 426.361,790.401 402,803.5C 351.774,775.305 301.941,746.472 252.5,717C 216.715,722.414 183.048,716.414 151.5,699C 126.329,683.816 111.496,661.649 107,632.5C 89.4052,622.565 72.0719,612.231 55,601.5C 54.3333,468.833 54.3333,336.167 55,203.5C 170.349,135.748 285.849,68.4145 401.5,1.5 Z M 402.5,43.5 C 428.637,58.4027 454.637,73.5693 480.5,89C 458.028,93.0276 435.695,97.6943 413.5,103C 392.216,109.873 371.216,117.539 350.5,126C 336.975,128.572 323.642,131.905 310.5,136C 297.065,142.768 287.899,153.268 283,167.5C 282.5,293.5 282.333,419.5 282.5,545.5C 253.039,534.134 222.706,531.3 191.5,537C 157.386,543.819 131.719,562.152 114.5,592C 113.5,592.667 112.5,592.667 111.5,592C 105.249,588.292 99.0827,584.459 93,580.5C 92.1667,461.832 92.3333,343.165 93.5,224.5C 196.28,163.705 299.28,103.372 402.5,43.5 Z M 683.5,205.5 C 693.45,211.61 703.283,217.943 713,224.5C 713.667,343.167 713.667,461.833 713,580.5C 609.865,641.47 506.365,701.803 402.5,761.5C 366.675,741.088 331.008,720.421 295.5,699.5C 314.133,688.7 327.633,673.366 336,653.5C 338.454,646.686 340.12,639.686 341,632.5C 341.816,582.503 342.316,532.503 342.5,482.5C 341.738,417.167 341.571,351.834 342,286.5C 435.331,261.959 528.831,237.959 622.5,214.5C 622.667,294.834 622.5,375.167 622,455.5C 584.487,440.794 546.987,440.961 509.5,456C 484.783,466.717 466.616,484.217 455,508.5C 441.934,559.537 459.434,596.037 507.5,618C 546.45,634.429 585.45,634.429 624.5,618C 654.942,604.564 674.109,581.73 682,549.5C 683.482,434.854 683.982,320.188 683.5,205.5 Z"/></g>
<g><path style="opacity:1" fill="#f9faf2" d="M 723.5,430.5 C 724.5,430.5 725.5,430.5 726.5,430.5C 726.5,431.5 726.5,432.5 726.5,433.5C 725.5,433.5 724.5,433.5 723.5,433.5C 723.5,432.5 723.5,431.5 723.5,430.5 Z"/></g>
</svg>
